<mxfile host="app.diagrams.net" agent="Mozilla/5.0 (Windows NT 10.0; Win64; x64) AppleWebKit/537.36 (KHTML, like Gecko) Chrome/141.0.0.0 Safari/537.36 Edg/141.0.0.0" version="28.2.7">
  <diagram name="페이지-1" id="0sbQ8impG-2aKoyrmQDB">
    <mxGraphModel dx="1034" dy="570" grid="1" gridSize="10" guides="1" tooltips="1" connect="1" arrows="1" fold="1" page="1" pageScale="1" pageWidth="827" pageHeight="1169" math="0" shadow="0">
      <root>
        <mxCell id="0" />
        <mxCell id="1" parent="0" />
        <mxCell id="m3OeoEg5qvTgJhw6XrgO-1" value="User" style="shape=umlActor;verticalLabelPosition=bottom;verticalAlign=top;html=1;outlineConnect=0;" vertex="1" parent="1">
          <mxGeometry x="80" y="70" width="30" height="60" as="geometry" />
        </mxCell>
        <mxCell id="m3OeoEg5qvTgJhw6XrgO-2" value="Robot" style="shape=umlActor;verticalLabelPosition=bottom;verticalAlign=top;html=1;outlineConnect=0;" vertex="1" parent="1">
          <mxGeometry x="80" y="350" width="30" height="60" as="geometry" />
        </mxCell>
        <mxCell id="m3OeoEg5qvTgJhw6XrgO-3" value="API Gateway" style="whiteSpace=wrap;html=1;aspect=fixed;" vertex="1" parent="1">
          <mxGeometry x="250" y="220" width="80" height="80" as="geometry" />
        </mxCell>
        <mxCell id="m3OeoEg5qvTgJhw6XrgO-4" value="Auth Service" style="whiteSpace=wrap;html=1;aspect=fixed;" vertex="1" parent="1">
          <mxGeometry x="450" y="220" width="80" height="80" as="geometry" />
        </mxCell>
        <mxCell id="m3OeoEg5qvTgJhw6XrgO-10" value="POST user/login" style="text;html=1;whiteSpace=wrap;strokeColor=none;fillColor=none;align=center;verticalAlign=middle;rounded=0;" vertex="1" parent="1">
          <mxGeometry x="140" y="170" width="100" height="30" as="geometry" />
        </mxCell>
        <mxCell id="m3OeoEg5qvTgJhw6XrgO-15" value="POST user/login" style="text;html=1;whiteSpace=wrap;strokeColor=none;fillColor=none;align=center;verticalAlign=middle;rounded=0;" vertex="1" parent="1">
          <mxGeometry x="340" y="190" width="100" height="30" as="geometry" />
        </mxCell>
        <mxCell id="m3OeoEg5qvTgJhw6XrgO-16" value="" style="endArrow=classic;startArrow=classic;html=1;rounded=0;exitX=0;exitY=0.5;exitDx=0;exitDy=0;" edge="1" parent="1" source="m3OeoEg5qvTgJhw6XrgO-3" target="m3OeoEg5qvTgJhw6XrgO-1">
          <mxGeometry width="50" height="50" relative="1" as="geometry">
            <mxPoint x="232.8" y="256.4" as="sourcePoint" />
            <mxPoint x="110" y="150" as="targetPoint" />
          </mxGeometry>
        </mxCell>
        <mxCell id="m3OeoEg5qvTgJhw6XrgO-19" value="" style="endArrow=classic;startArrow=classic;html=1;rounded=0;exitX=0;exitY=0.5;exitDx=0;exitDy=0;entryX=1;entryY=0.5;entryDx=0;entryDy=0;" edge="1" parent="1" source="m3OeoEg5qvTgJhw6XrgO-4" target="m3OeoEg5qvTgJhw6XrgO-3">
          <mxGeometry width="50" height="50" relative="1" as="geometry">
            <mxPoint x="470" y="475" as="sourcePoint" />
            <mxPoint x="330" y="330" as="targetPoint" />
          </mxGeometry>
        </mxCell>
        <mxCell id="m3OeoEg5qvTgJhw6XrgO-20" value="" style="endArrow=classic;startArrow=classic;html=1;rounded=0;exitX=0;exitY=0.5;exitDx=0;exitDy=0;" edge="1" parent="1" source="m3OeoEg5qvTgJhw6XrgO-3" target="m3OeoEg5qvTgJhw6XrgO-2">
          <mxGeometry width="50" height="50" relative="1" as="geometry">
            <mxPoint x="330" y="390" as="sourcePoint" />
            <mxPoint x="190" y="290" as="targetPoint" />
          </mxGeometry>
        </mxCell>
        <mxCell id="m3OeoEg5qvTgJhw6XrgO-21" value="POST user/robot/login" style="text;html=1;whiteSpace=wrap;strokeColor=none;fillColor=none;align=center;verticalAlign=middle;rounded=0;" vertex="1" parent="1">
          <mxGeometry x="140" y="340" width="100" height="30" as="geometry" />
        </mxCell>
        <mxCell id="m3OeoEg5qvTgJhw6XrgO-23" value="POST user/robot/login" style="text;html=1;whiteSpace=wrap;strokeColor=none;fillColor=none;align=center;verticalAlign=middle;rounded=0;" vertex="1" parent="1">
          <mxGeometry x="340" y="230" width="100" height="30" as="geometry" />
        </mxCell>
        <mxCell id="m3OeoEg5qvTgJhw6XrgO-24" value="S3" style="shape=cylinder3;whiteSpace=wrap;html=1;boundedLbl=1;backgroundOutline=1;size=15;" vertex="1" parent="1">
          <mxGeometry x="379" y="360" width="70" height="60" as="geometry" />
        </mxCell>
        <mxCell id="m3OeoEg5qvTgJhw6XrgO-25" value="PostgresQL" style="shape=cylinder3;whiteSpace=wrap;html=1;boundedLbl=1;backgroundOutline=1;size=14.79998779296875;" vertex="1" parent="1">
          <mxGeometry x="530" y="360" width="70" height="60" as="geometry" />
        </mxCell>
        <mxCell id="m3OeoEg5qvTgJhw6XrgO-26" value="" style="endArrow=classic;startArrow=classic;html=1;rounded=0;exitX=0.5;exitY=0;exitDx=0;exitDy=0;entryX=0.5;entryY=1;entryDx=0;entryDy=0;exitPerimeter=0;" edge="1" parent="1" source="m3OeoEg5qvTgJhw6XrgO-24" target="m3OeoEg5qvTgJhw6XrgO-4">
          <mxGeometry width="50" height="50" relative="1" as="geometry">
            <mxPoint x="403" y="472" as="sourcePoint" />
            <mxPoint x="360" y="380" as="targetPoint" />
          </mxGeometry>
        </mxCell>
        <mxCell id="m3OeoEg5qvTgJhw6XrgO-27" value="" style="endArrow=classic;startArrow=classic;html=1;rounded=0;exitX=0.5;exitY=0;exitDx=0;exitDy=0;entryX=0.5;entryY=1;entryDx=0;entryDy=0;exitPerimeter=0;" edge="1" parent="1" source="m3OeoEg5qvTgJhw6XrgO-25" target="m3OeoEg5qvTgJhw6XrgO-4">
          <mxGeometry width="50" height="50" relative="1" as="geometry">
            <mxPoint x="430" y="450" as="sourcePoint" />
            <mxPoint x="479" y="420" as="targetPoint" />
          </mxGeometry>
        </mxCell>
        <mxCell id="m3OeoEg5qvTgJhw6XrgO-29" value="refresh token&lt;br&gt;blacklist token" style="text;html=1;whiteSpace=wrap;strokeColor=none;fillColor=none;align=center;verticalAlign=middle;rounded=0;" vertex="1" parent="1">
          <mxGeometry x="364" y="310" width="100" height="30" as="geometry" />
        </mxCell>
        <mxCell id="m3OeoEg5qvTgJhw6XrgO-30" value="User ID / PWD / Role" style="text;html=1;whiteSpace=wrap;strokeColor=none;fillColor=none;align=center;verticalAlign=middle;rounded=0;" vertex="1" parent="1">
          <mxGeometry x="530" y="310" width="130" height="30" as="geometry" />
        </mxCell>
      </root>
    </mxGraphModel>
  </diagram>
</mxfile>
